<?xml version="1.0" standalone="no"?>
<!DOCTYPE svg PUBLIC "-//W3C//DTD SVG 20010904//EN"
 "http://www.w3.org/TR/2001/REC-SVG-20010904/DTD/svg10.dtd">
<svg version="1.0" xmlns="http://www.w3.org/2000/svg"
 width="256.000000pt" height="256.000000pt" viewBox="0 0 256.000000 256.000000"
 preserveAspectRatio="xMidYMid meet">
<metadata>
Created by potrace 1.14, written by Peter Selinger 2001-2017
</metadata>
<g transform="translate(0.000000,256.000000) scale(0.100000,-0.100000)"
fill="#000000" stroke="none">
<path d="M165 2468 c1 -33 -3 -59 -9 -61 -6 -1 -43 -2 -82 -1 l-72 1 2 -51 1
-51 80 -5 80 -5 0 -111 0 -111 52 -2 53 -2 1 33 c0 18 0 70 -1 116 l-1 82 50
0 51 0 0 55 0 54 -37 -1 c-64 -1 -63 -2 -63 60 l0 58 -53 0 -53 -1 1 -57z"/>
<path d="M2229 2510 c-70 -21 -219 -96 -310 -155 -38 -25 -76 -45 -85 -45 -8
0 -37 11 -64 25 -28 14 -53 26 -57 26 -5 1 -12 3 -18 5 -76 24 -161 45 -205
50 -30 3 -58 8 -62 11 -11 6 -226 4 -263 -2 -16 -3 -57 -10 -89 -16 -141 -25
-324 -104 -456 -197 -99 -70 -220 -198 -291 -308 -67 -102 -75 -118 -116 -219
-113 -283 -100 -641 32 -917 l18 -36 -57 -91 c-206 -326 -232 -521 -79 -600
89 -45 308 30 546 187 l38 26 57 -29 c239 -118 478 -154 742 -111 99 16 246
68 350 124 280 152 497 430 574 737 27 108 28 119 31 265 5 208 -31 373 -118
546 l-34 67 66 111 c173 288 196 451 77 540 -36 28 -148 31 -227 6z m136 -187
c-7 -51 -52 -154 -112 -262 l-36 -65 -58 61 c-31 34 -83 82 -113 107 l-56 46
40 25 c119 75 257 134 314 135 28 0 28 0 21 -47z m-1995 -1763 c0 -5 45 -55
99 -110 l99 -101 -39 -25 c-105 -66 -264 -134 -314 -134 -21 0 -25 5 -25 29 0
58 51 172 147 329 14 22 33 30 33 12z"/>
</g>
</svg>
